<?xml version="1.0" encoding="UTF-8"?>
<svg width="690px" height="415px" viewBox="0 0 690 415" version="1.1" xmlns="http://www.w3.org/2000/svg" xmlns:xlink="http://www.w3.org/1999/xlink">
    <!-- Generator: Sketch 50.2 (55047) - http://www.bohemiancoding.com/sketch -->
    <title>Group</title>
    <desc>Created with Sketch.</desc>
    <defs>
        <path d="M34.9671786,45.7725 L0.100535714,45.7725 L0.100535714,54.805875 L34.9671786,54.805875 C37.2686071,80.382375 58.8508929,100.50825 85.0871786,100.50825 C111.323464,100.50825 132.899357,80.382375 135.207179,54.805875 L170.067429,54.805875 L170.067429,45.7725 L135.207179,45.7725 C132.899357,20.189625 111.323464,0.070125 85.0871786,0.070125 C58.8508929,0.070125 37.2686071,20.189625 34.9671786,45.7725 M85.0871786,9.11625 C106.317857,9.11625 123.847071,25.187625 126.10375,45.7725 L44.0578214,45.7725 C46.3272857,25.187625 63.8565,9.11625 85.0871786,9.11625 M44.0578214,54.805875 L126.10375,54.805875 C123.847071,75.397125 106.317857,91.462125 85.0871786,91.462125 C63.8565,91.462125 46.3272857,75.397125 44.0578214,54.805875" id="path-1"></path>
        <linearGradient x1="50.0012754%" y1="-9191.70712%" x2="50.0012754%" y2="5601.35523%" id="linearGradient-3">
            <stop stop-color="#2F59FB" offset="0%"></stop>
            <stop stop-color="#101CF6" offset="100%"></stop>
        </linearGradient>
        <polygon id="path-4" points="51.9009167 0.9008 0 414.9872 72.9084306 414.9872 74.5475417 401.6688 15.1041528 401.6688 63.6564167 14.2192 455.826556 14.2192 457.183944 0.9008"></polygon>
        <linearGradient x1="0%" y1="49.9998216%" x2="102.335809%" y2="49.9998216%" id="linearGradient-6">
            <stop stop-color="#FDDA4B" offset="0%"></stop>
            <stop stop-color="#FDAF6E" offset="100%"></stop>
        </linearGradient>
        <polygon id="path-7" points="383.1712 0.9008 381.7504 14.2192 525.3088 14.2192 482.9856 401.6752 2.032 401.6496 0.4128 414.968 494.928 415 540.1696 0.9008"></polygon>
        <linearGradient x1="-1.28850481%" y1="49.9998267%" x2="99.999363%" y2="49.9998267%" id="linearGradient-9">
            <stop stop-color="#FDDA4B" offset="0%"></stop>
            <stop stop-color="#FDAF6E" offset="100%"></stop>
        </linearGradient>
    </defs>
    <g id="main" stroke="none" stroke-width="1" fill="none" fill-rule="evenodd">
        <g id="Desktop/index-" transform="translate(-255.000000, -4846.000000)">
            <g id="Group" transform="translate(255.000000, 4846.000000)">
                <g id="Group-3" transform="translate(265.000000, 159.000000)">
                    <mask id="mask-2" fill="white">
                        <use xlink:href="#path-1"></use>
                    </mask>
                    <g id="Clip-2"></g>
                    <path d="M34.9671786,45.7725 L0.100535714,45.7725 L0.100535714,54.805875 L34.9671786,54.805875 C37.2686071,80.382375 58.8508929,100.50825 85.0871786,100.50825 C111.323464,100.50825 132.899357,80.382375 135.207179,54.805875 L170.067429,54.805875 L170.067429,45.7725 L135.207179,45.7725 C132.899357,20.189625 111.323464,0.070125 85.0871786,0.070125 C58.8508929,0.070125 37.2686071,20.189625 34.9671786,45.7725 M85.0871786,9.11625 C106.317857,9.11625 123.847071,25.187625 126.10375,45.7725 L44.0578214,45.7725 C46.3272857,25.187625 63.8565,9.11625 85.0871786,9.11625 M44.0578214,54.805875 L126.10375,54.805875 C123.847071,75.397125 106.317857,91.462125 85.0871786,91.462125 C63.8565,91.462125 46.3272857,75.397125 44.0578214,54.805875" id="Fill-1" fill="url(#linearGradient-3)" mask="url(#mask-2)"></path>
                </g>
                <g id="Group-6">
                    <mask id="mask-5" fill="white">
                        <use xlink:href="#path-4"></use>
                    </mask>
                    <g id="Clip-5"></g>
                    <polygon id="Fill-4" fill="url(#linearGradient-6)" mask="url(#mask-5)" points="51.9009167 0.9008 0 414.9872 72.9084306 414.9872 74.5475417 401.6688 15.1041528 401.6688 63.6564167 14.2192 455.826556 14.2192 457.183944 0.9008"></polygon>
                </g>
                <g id="Group-9" transform="translate(149.000000, 0.000000)">
                    <mask id="mask-8" fill="white">
                        <use xlink:href="#path-7"></use>
                    </mask>
                    <g id="Clip-8"></g>
                    <polygon id="Fill-7" fill="url(#linearGradient-9)" mask="url(#mask-8)" points="383.1712 0.9008 381.7504 14.2192 525.3088 14.2192 482.9856 401.6752 2.032 401.6496 0.4128 414.968 494.928 415 540.1696 0.9008"></polygon>
                </g>
            </g>
        </g>
    </g>
</svg>