<?xml version="1.0" encoding="utf-8"?>
<!-- Generator: Adobe Illustrator 21.0.2, SVG Export Plug-In . SVG Version: 6.00 Build 0)  -->
<svg version="1.1" id="Layer_1" xmlns="http://www.w3.org/2000/svg" xmlns:xlink="http://www.w3.org/1999/xlink" x="0px" y="0px"
	 viewBox="0 0 800 480" style="enable-background:new 0 0 800 480;" xml:space="preserve">
<style type="text/css">
	.st0{fill:url(#SVGID_1_);}
	.st1{fill:url(#SVGID_2_);}
	.st2{clip-path:url(#SVGID_4_);fill:#1D34F9;}
	.st3{clip-path:url(#SVGID_4_);fill:#1C33F9;}
	.st4{clip-path:url(#SVGID_4_);fill:#1C32F8;}
	.st5{clip-path:url(#SVGID_4_);fill:#1B31F8;}
	.st6{clip-path:url(#SVGID_4_);fill:#1D35F9;}
	.st7{clip-path:url(#SVGID_4_);fill:#1B30F8;}
	.st8{clip-path:url(#SVGID_6_);fill:#1C33F9;}
	.st9{clip-path:url(#SVGID_6_);fill:#1C32F8;}
</style>
<g>
	<g>
		<linearGradient id="SVGID_1_" gradientUnits="userSpaceOnUse" x1="7" y1="241.2578" x2="530.1096" y2="241.2578">
			<stop  offset="0" style="stop-color:#FEDA4B"/>
			<stop  offset="1" style="stop-color:#FEB06E"/>
		</linearGradient>
		<polygon class="st0" points="91.4,478.3 7,478.3 66.4,4.2 530.1,4.2 530.1,19.5 79.9,19.5 24.3,463.1 91.4,463.1 		"/>
	</g>
	<g>
		<linearGradient id="SVGID_2_" gradientUnits="userSpaceOnUse" x1="187.1209" y1="241.2653" x2="796.283" y2="241.2653">
			<stop  offset="0" style="stop-color:#FEDA4B"/>
			<stop  offset="1" style="stop-color:#FEB06E"/>
		</linearGradient>
		<polygon class="st1" points="744.5,478.3 187.1,478.3 187.1,463 730.8,463.1 779.3,19.5 616,19.5 616,4.2 796.3,4.2 		"/>
	</g>
	<g>
		<g>
			<g>
				<defs>
					<path id="SVGID_3_" d="M408.4,300.7c-31.8,0-57.7-25.9-57.7-57.7s25.9-57.7,57.7-57.7s57.7,25.9,57.7,57.7
						S440.2,300.7,408.4,300.7z M408.4,195.7c-26.1,0-47.3,21.2-47.3,47.3s21.2,47.3,47.3,47.3c26.1,0,47.3-21.2,47.3-47.3
						S434.5,195.7,408.4,195.7z"/>
				</defs>
				<clipPath id="SVGID_4_">
					<use xlink:href="#SVGID_3_"  style="overflow:visible;"/>
				</clipPath>
				<rect x="361.1" y="195.7" class="st2" width="94.6" height="19.4"/>
				<rect x="361.1" y="215.1" class="st3" width="94.6" height="25.2"/>
				<rect x="361.1" y="240.3" class="st4" width="94.6" height="25.2"/>
				<rect x="361.1" y="265.5" class="st5" width="94.6" height="24.9"/>
				<rect x="350.7" y="185.3" class="st6" width="115.4" height="4.6"/>
				<rect x="350.7" y="189.9" class="st2" width="115.4" height="25.2"/>
				<rect x="350.7" y="215.1" class="st3" width="115.4" height="25.2"/>
				<rect x="350.7" y="240.3" class="st4" width="115.4" height="25.2"/>
				<rect x="350.7" y="265.5" class="st5" width="115.4" height="25.2"/>
				<rect x="350.7" y="290.7" class="st7" width="115.4" height="10.1"/>
			</g>
		</g>
	</g>
	<g>
		<g>
			<g>
				<defs>
					<rect id="SVGID_5_" x="311" y="237.8" width="194.8" height="10.4"/>
				</defs>
				<clipPath id="SVGID_6_">
					<use xlink:href="#SVGID_5_"  style="overflow:visible;"/>
				</clipPath>
				<rect x="311" y="237.8" class="st8" width="194.8" height="2.5"/>
				<rect x="311" y="240.3" class="st9" width="194.8" height="7.9"/>
			</g>
		</g>
	</g>
</g>
</svg>
