<?xml version="1.0" encoding="utf-8"?>
<!-- Generator: Adobe Illustrator 21.1.0, SVG Export Plug-In . SVG Version: 6.00 Build 0)  -->
<svg version="1.1" id="Layer_1" xmlns="http://www.w3.org/2000/svg" xmlns:xlink="http://www.w3.org/1999/xlink" x="0px" y="0px"
	 viewBox="0 0 800 480" style="enable-background:new 0 0 800 480;" xml:space="preserve">
<style type="text/css">
	.st0{fill:#FFFFFF;}
	.st1{clip-path:url(#SVGID_2_);fill:#1D34F9;}
	.st2{clip-path:url(#SVGID_4_);fill:#1D34F9;}
	.st3{clip-path:url(#SVGID_6_);fill:#1D34F9;}
	.st4{clip-path:url(#SVGID_8_);fill:#1D34F9;}
	.st5{clip-path:url(#SVGID_10_);fill:#1D34F9;}
	.st6{clip-path:url(#SVGID_12_);fill:#1D34F9;}
	.st7{clip-path:url(#SVGID_14_);fill:#1D34F9;}
	.st8{clip-path:url(#SVGID_16_);fill:#1D34F9;}
	.st9{clip-path:url(#SVGID_18_);fill:#1D34F9;}
	.st10{clip-path:url(#SVGID_20_);fill:#1D34F9;}
	.st11{clip-path:url(#SVGID_22_);fill:#1D34F9;}
	.st12{clip-path:url(#SVGID_24_);fill:#1D34F9;}
</style>
<g>
	<g>
		<polygon class="st0" points="91.4,478.3 7,478.3 66.4,4.2 530.1,4.2 530.1,19.5 79.9,19.5 24.3,463.1 91.4,463.1 		"/>
	</g>
	<g>
		<polygon class="st0" points="744.5,478.3 187.1,478.3 187.1,463 730.8,463.1 779.3,19.5 616,19.5 616,4.2 796.3,4.2 		"/>
	</g>
	<g>
		<g>
			<g>
				<g>
					<defs>
						<path id="SVGID_1_" d="M408.4,300.7c-31.8,0-57.7-25.9-57.7-57.7s25.9-57.7,57.7-57.7s57.7,25.9,57.7,57.7
							S440.2,300.7,408.4,300.7z M408.4,195.7c-26.1,0-47.3,21.2-47.3,47.3s21.2,47.3,47.3,47.3c26.1,0,47.3-21.2,47.3-47.3
							S434.5,195.7,408.4,195.7z"/>
					</defs>
					<use xlink:href="#SVGID_1_"  style="overflow:visible;fill:#1D34F9;"/>
					<clipPath id="SVGID_2_">
						<use xlink:href="#SVGID_1_"  style="overflow:visible;"/>
					</clipPath>
					<rect x="361.1" y="195.7" class="st1" width="94.6" height="19.4"/>
				</g>
				<g>
					<defs>
						<path id="SVGID_3_" d="M408.4,300.7c-31.8,0-57.7-25.9-57.7-57.7s25.9-57.7,57.7-57.7s57.7,25.9,57.7,57.7
							S440.2,300.7,408.4,300.7z M408.4,195.7c-26.1,0-47.3,21.2-47.3,47.3s21.2,47.3,47.3,47.3c26.1,0,47.3-21.2,47.3-47.3
							S434.5,195.7,408.4,195.7z"/>
					</defs>
					<use xlink:href="#SVGID_3_"  style="overflow:visible;fill:#1D34F9;"/>
					<clipPath id="SVGID_4_">
						<use xlink:href="#SVGID_3_"  style="overflow:visible;"/>
					</clipPath>
					<rect x="361.1" y="215.1" class="st2" width="94.6" height="25.2"/>
				</g>
				<g>
					<defs>
						<path id="SVGID_5_" d="M408.4,300.7c-31.8,0-57.7-25.9-57.7-57.7s25.9-57.7,57.7-57.7s57.7,25.9,57.7,57.7
							S440.2,300.7,408.4,300.7z M408.4,195.7c-26.1,0-47.3,21.2-47.3,47.3s21.2,47.3,47.3,47.3c26.1,0,47.3-21.2,47.3-47.3
							S434.5,195.7,408.4,195.7z"/>
					</defs>
					<use xlink:href="#SVGID_5_"  style="overflow:visible;fill:#1D34F9;"/>
					<clipPath id="SVGID_6_">
						<use xlink:href="#SVGID_5_"  style="overflow:visible;"/>
					</clipPath>
					<rect x="361.1" y="240.3" class="st3" width="94.6" height="25.2"/>
				</g>
				<g>
					<defs>
						<path id="SVGID_7_" d="M408.4,300.7c-31.8,0-57.7-25.9-57.7-57.7s25.9-57.7,57.7-57.7s57.7,25.9,57.7,57.7
							S440.2,300.7,408.4,300.7z M408.4,195.7c-26.1,0-47.3,21.2-47.3,47.3s21.2,47.3,47.3,47.3c26.1,0,47.3-21.2,47.3-47.3
							S434.5,195.7,408.4,195.7z"/>
					</defs>
					<use xlink:href="#SVGID_7_"  style="overflow:visible;fill:#1D34F9;"/>
					<clipPath id="SVGID_8_">
						<use xlink:href="#SVGID_7_"  style="overflow:visible;"/>
					</clipPath>
					<rect x="361.1" y="265.5" class="st4" width="94.6" height="24.9"/>
				</g>
				<g>
					<defs>
						<path id="SVGID_9_" d="M408.4,300.7c-31.8,0-57.7-25.9-57.7-57.7s25.9-57.7,57.7-57.7s57.7,25.9,57.7,57.7
							S440.2,300.7,408.4,300.7z M408.4,195.7c-26.1,0-47.3,21.2-47.3,47.3s21.2,47.3,47.3,47.3c26.1,0,47.3-21.2,47.3-47.3
							S434.5,195.7,408.4,195.7z"/>
					</defs>
					<use xlink:href="#SVGID_9_"  style="overflow:visible;fill:#1D34F9;"/>
					<clipPath id="SVGID_10_">
						<use xlink:href="#SVGID_9_"  style="overflow:visible;"/>
					</clipPath>
					<rect x="350.7" y="185.3" class="st5" width="115.4" height="4.6"/>
				</g>
				<g>
					<defs>
						<path id="SVGID_11_" d="M408.4,300.7c-31.8,0-57.7-25.9-57.7-57.7s25.9-57.7,57.7-57.7s57.7,25.9,57.7,57.7
							S440.2,300.7,408.4,300.7z M408.4,195.7c-26.1,0-47.3,21.2-47.3,47.3s21.2,47.3,47.3,47.3c26.1,0,47.3-21.2,47.3-47.3
							S434.5,195.7,408.4,195.7z"/>
					</defs>
					<use xlink:href="#SVGID_11_"  style="overflow:visible;fill:#1D34F9;"/>
					<clipPath id="SVGID_12_">
						<use xlink:href="#SVGID_11_"  style="overflow:visible;"/>
					</clipPath>
					<rect x="350.7" y="189.9" class="st6" width="115.4" height="25.2"/>
				</g>
				<g>
					<defs>
						<path id="SVGID_13_" d="M408.4,300.7c-31.8,0-57.7-25.9-57.7-57.7s25.9-57.7,57.7-57.7s57.7,25.9,57.7,57.7
							S440.2,300.7,408.4,300.7z M408.4,195.7c-26.1,0-47.3,21.2-47.3,47.3s21.2,47.3,47.3,47.3c26.1,0,47.3-21.2,47.3-47.3
							S434.5,195.7,408.4,195.7z"/>
					</defs>
					<use xlink:href="#SVGID_13_"  style="overflow:visible;fill:#1D34F9;"/>
					<clipPath id="SVGID_14_">
						<use xlink:href="#SVGID_13_"  style="overflow:visible;"/>
					</clipPath>
					<rect x="350.7" y="215.1" class="st7" width="115.4" height="25.2"/>
				</g>
				<g>
					<defs>
						<path id="SVGID_15_" d="M408.4,300.7c-31.8,0-57.7-25.9-57.7-57.7s25.9-57.7,57.7-57.7s57.7,25.9,57.7,57.7
							S440.2,300.7,408.4,300.7z M408.4,195.7c-26.1,0-47.3,21.2-47.3,47.3s21.2,47.3,47.3,47.3c26.1,0,47.3-21.2,47.3-47.3
							S434.5,195.7,408.4,195.7z"/>
					</defs>
					<use xlink:href="#SVGID_15_"  style="overflow:visible;fill:#1D34F9;"/>
					<clipPath id="SVGID_16_">
						<use xlink:href="#SVGID_15_"  style="overflow:visible;"/>
					</clipPath>
					<rect x="350.7" y="240.3" class="st8" width="115.4" height="25.2"/>
				</g>
				<g>
					<defs>
						<path id="SVGID_17_" d="M408.4,300.7c-31.8,0-57.7-25.9-57.7-57.7s25.9-57.7,57.7-57.7s57.7,25.9,57.7,57.7
							S440.2,300.7,408.4,300.7z M408.4,195.7c-26.1,0-47.3,21.2-47.3,47.3s21.2,47.3,47.3,47.3c26.1,0,47.3-21.2,47.3-47.3
							S434.5,195.7,408.4,195.7z"/>
					</defs>
					<use xlink:href="#SVGID_17_"  style="overflow:visible;fill:#1D34F9;"/>
					<clipPath id="SVGID_18_">
						<use xlink:href="#SVGID_17_"  style="overflow:visible;"/>
					</clipPath>
					<rect x="350.7" y="265.5" class="st9" width="115.4" height="25.2"/>
				</g>
				<g>
					<defs>
						<path id="SVGID_19_" d="M408.4,300.7c-31.8,0-57.7-25.9-57.7-57.7s25.9-57.7,57.7-57.7s57.7,25.9,57.7,57.7
							S440.2,300.7,408.4,300.7z M408.4,195.7c-26.1,0-47.3,21.2-47.3,47.3s21.2,47.3,47.3,47.3c26.1,0,47.3-21.2,47.3-47.3
							S434.5,195.7,408.4,195.7z"/>
					</defs>
					<use xlink:href="#SVGID_19_"  style="overflow:visible;fill:#1D34F9;"/>
					<clipPath id="SVGID_20_">
						<use xlink:href="#SVGID_19_"  style="overflow:visible;"/>
					</clipPath>
					<rect x="350.7" y="290.7" class="st10" width="115.4" height="10.1"/>
				</g>
			</g>
		</g>
	</g>
	<g>
		<g>
			<g>
				<g>
					<defs>
						<rect id="SVGID_21_" x="311" y="237.8" width="194.8" height="10.4"/>
					</defs>
					<use xlink:href="#SVGID_21_"  style="overflow:visible;fill:#1D34F9;"/>
					<clipPath id="SVGID_22_">
						<use xlink:href="#SVGID_21_"  style="overflow:visible;"/>
					</clipPath>
					<rect x="311" y="237.8" class="st11" width="194.8" height="2.5"/>
				</g>
				<g>
					<defs>
						<rect id="SVGID_23_" x="311" y="237.8" width="194.8" height="10.4"/>
					</defs>
					<use xlink:href="#SVGID_23_"  style="overflow:visible;fill:#1D34F9;"/>
					<clipPath id="SVGID_24_">
						<use xlink:href="#SVGID_23_"  style="overflow:visible;"/>
					</clipPath>
					<rect x="311" y="240.3" class="st12" width="194.8" height="7.9"/>
				</g>
			</g>
		</g>
	</g>
</g>
</svg>
