<?xml version="1.0" encoding="utf-8"?>
<!-- Generator: Adobe Illustrator 21.1.0, SVG Export Plug-In . SVG Version: 6.00 Build 0)  -->
<svg version="1.1" id="Layer_1" xmlns="http://www.w3.org/2000/svg" xmlns:xlink="http://www.w3.org/1999/xlink" x="0px" y="0px"
	 viewBox="0 0 500 500" style="enable-background:new 0 0 500 500;" xml:space="preserve">
<style type="text/css">
	.st0{fill:#FFFFFF;}
</style>
<path class="st0" d="M0.4-0.5v500h500v-500H0.4z M483.9,214.4c-3.2,31.8-32.8,51.9-36.7,82.7c-2.6,20.4-20.1,9.8-26.4,24.1
	c-4.6,10.3,10.2,16.5,11.9,25.1c0.9,4.6-2.7,10.3-7.4,9.6c-5.2-0.9-7.1-8.5-12.2-9.6c-2.5-0.5-5.1,0.7-7.4,2
	c-17.1,9.7-31.4,24.3-40.9,41.6c-3.9,7.2-9.3,16.2-17.4,15.1c-21.4-2.9-5.4-42-37.8-31.2c-21.6,7.2-44.8,13.6-64,26.1
	c-28.4,18.5-16.9,34.8-25.2,63.1c-7.1,24.1-54.2,33.3-41.4-2.2c3.3-9.1,1.3-19.1-0.7-28.6c-7.1-33.5-16.9-77.5-51.8-92.7
	c-8.4-3.7-17.7-5.1-26-9.3c-26.2-13.1-49-60-53.4-88.1c-1.2-7.9-1.1-16.1-3.8-23.5c-6.8-18.7-54.2-33.2-2.8-35.2
	c6.6-0.3,15.9,2.1,22.2,0.2c12.9-3.9,20.8-15.7,32.6-21.5c13.9-7,29.7-6.7,44.5-10.4c9.7-2.4,19.5-8.6,18.5-20
	c-0.5-5.5-2.5-11-1.4-16.4c4-19.5,33.8-14.7,40.2-35.6c4.1-13.4-3.3-27-2.7-40.4c0.4-9.4,5.2-17.4,22.5-22.7c0,0,0,0,0.1,0
	c23.2-7.1,23.7,7.5,32.8,23.2c15.1,25.7,29.3,15.2,54.4,22c8.1,2.2,15.8,8.3,17.3,16.6c1.2,6.4-0.4,14.9,5.4,17.8
	c2.8,1.4,6.2,0.5,9.3,1.3c9.9,2.5,15.5,27.4,24.7,35.1c11.9,9.9,31,12.4,33.8,30.4c1.2,7.8-2.5,15.4-6.4,22.1
	c19,7.5,54.8,33.7,75.2,27.9c3.7-1.1,6.6-3.9,10-5.4c3.5-1.6,8.5-1.3,10,2.2C484.1,211.2,484,212.8,483.9,214.4z"/>
</svg>
