<svg xmlns="http://www.w3.org/2000/svg" xmlns:xlink="http://www.w3.org/1999/xlink" viewBox="0 0 1557.94 1220.59"><defs><style>.cls-1{fill:#eee;}.cls-12,.cls-2,.cls-3,.cls-4,.cls-5,.cls-6,.cls-7,.cls-8{fill:none;}.cls-2,.cls-3,.cls-8{stroke-miterlimit:10;}.cls-2,.cls-3,.cls-4,.cls-5,.cls-6,.cls-7,.cls-8{stroke-width:2px;}.cls-2{stroke:url(#linear-gradient);}.cls-3{stroke:url(#linear-gradient-2);}.cls-4{stroke:#2d6afa;}.cls-4,.cls-5,.cls-6,.cls-7{stroke-linecap:round;stroke-linejoin:round;}.cls-5{stroke:#fdca3a;}.cls-6{stroke:#df1e2e;}.cls-7{stroke:#fda46a;}.cls-8{stroke:url(#linear-gradient-3);}.cls-9{clip-path:url(#clip-path);}.cls-10{clip-path:url(#clip-path-2);}.cls-11{fill:#2cd7e0;}.cls-13{fill:#002afa;}.cls-14{fill:#5c8cfb;}.cls-15{fill:#fdca3a;}.cls-16{fill:#fd646a;}.cls-17{fill:#df1e2e;}.cls-18{fill:url(#linear-gradient-4);}</style><linearGradient id="linear-gradient" x1="1492.6" y1="2472.27" x2="1554.55" y2="2472.27" gradientTransform="matrix(0.9, -0.2, -0.19, 0.62, -566.93, -1140.8)" gradientUnits="userSpaceOnUse"><stop offset="0" stop-color="#3059fb"/><stop offset="1" stop-color="#101cf7"/></linearGradient><linearGradient id="linear-gradient-2" x1="24.19" y1="554.55" x2="382.94" y2="554.55" gradientTransform="matrix(1, 0, 0, 1, 0, 0)" xlink:href="#linear-gradient"/><linearGradient id="linear-gradient-3" x1="147.14" y1="1135.41" x2="271.82" y2="1135.41" gradientTransform="matrix(1, 0, 0, 1, 0, 0)" xlink:href="#linear-gradient"/><clipPath id="clip-path"><path class="cls-1" d="M622.56,918.72a47.23,47.23,0,1,1,47.23-47.23A47.29,47.29,0,0,1,622.56,918.72Zm0-86a38.73,38.73,0,1,0,38.72,38.73A38.77,38.77,0,0,0,622.56,832.76Z"/></clipPath><clipPath id="clip-path-2"><rect class="cls-1" x="542.84" y="867.24" width="159.43" height="8.5"/></clipPath><linearGradient id="linear-gradient-4" x1="13.18" y1="597.76" x2="37.2" y2="597.76" gradientTransform="matrix(1, 0, 0, 1, 0, 0)" xlink:href="#linear-gradient"/></defs><title>S01_Ribbons</title><g id="Layer_2" data-name="Layer 2"><g id="line"><line class="cls-2" x1="321.97" y1="55.22" x2="353.84" y2="116.15"/><path class="cls-3" d="M234.5,1042.79C106.67,937.29,25.19,777.64,25.19,599c0-240.58,147.7-446.65,357.37-532.5"/><path class="cls-4" d="M464.21,231.67c2.92,16.8,20.45,111.74,149.72,57.7s130.26-75.54,213.26-57.7C905.35,248.47,920,337.57,920,345.6"/><path class="cls-5" d="M442.3,122.12c8.76,11,28.48,23.37,53.32,0"/><path class="cls-4" d="M569.38,82.68C576,68.07,641-8.62,785.57,22.79S981.3,176.16,989.34,215.6"/><path class="cls-4" d="M591.86,263.69c10.23,3.58,40.91,22.57,29.22,75.16s-34.88,68.66-13.79,84.73"/><path class="cls-6" d="M569.38,263.69c-9.66,2.12-24.27,6.76-31.57,12.47"/><path class="cls-4" d="M554.21,331.45c.68,4.83,9.57,16.73,24.22,1.69"/><path class="cls-7" d="M391.3,291c-10.78,28-36.4,47.4-62.7,61.77s-54.73,25.41-78.17,44.08a147.68,147.68,0,0,0-32.76,36.54c-14.35,22.72-21.38,54.65-4,75.1,10.93,12.82,28.61,17.56,45.38,19.29a183.94,183.94,0,0,0,49.41-1.59"/><path class="cls-5" d="M1007.06,368.39c-6.32,32.37,19.32,63.59,49.33,77.29s63.93,15,96.39,20.83C1238.7,482,1320.15,535,1357,614.15s21.05,183.38-46.33,238.91c-14,11.51-29.77,20.89-42.33,33.93-19.57,20.32-19.54,48.93-29.33,74.22-17.53,45.29-68.66,26.3-105.19,68.66s-130,200.89-431,140.62-393-1.84-426.59,13.5"/><line class="cls-8" x1="147.95" y1="1220" x2="271.01" y2="1050.82"/><polygon class="cls-1" points="363.14 1064.03 294.09 1064.03 342.69 676.06 722.15 676.06 722.15 688.54 353.7 688.54 308.23 1051.55 363.14 1051.55 363.14 1064.03"/><polygon class="cls-1" points="897.59 1064.04 441.48 1064.01 441.48 1051.53 886.4 1051.56 926.05 688.54 792.48 688.54 792.48 676.06 939.97 676.06 897.59 1064.04"/><path class="cls-1" d="M622.56,918.72a47.23,47.23,0,1,1,47.23-47.23A47.29,47.29,0,0,1,622.56,918.72Zm0-86a38.73,38.73,0,1,0,38.72,38.73A38.77,38.77,0,0,0,622.56,832.76Z"/><g class="cls-9"><rect class="cls-1" x="583.83" y="832.76" width="77.45" height="15.86"/><rect class="cls-1" x="583.83" y="848.63" width="77.45" height="20.62"/><rect class="cls-1" x="583.83" y="869.25" width="77.45" height="20.62"/><rect class="cls-1" x="583.83" y="889.87" width="77.45" height="20.35"/><rect class="cls-1" x="575.33" y="824.26" width="94.45" height="3.74"/><rect class="cls-1" x="575.33" y="828.01" width="94.45" height="20.62"/><rect class="cls-1" x="575.33" y="848.63" width="94.45" height="20.62"/><rect class="cls-1" x="575.33" y="869.25" width="94.45" height="20.62"/><rect class="cls-1" x="575.33" y="889.87" width="94.45" height="20.62"/><rect class="cls-1" x="575.33" y="910.5" width="94.45" height="8.23"/></g><rect class="cls-1" x="542.84" y="867.24" width="159.43" height="8.5"/><g class="cls-10"><rect class="cls-1" x="542.84" y="867.24" width="159.43" height="2.01"/><rect class="cls-1" x="542.84" y="869.25" width="159.43" height="6.49"/></g></g><g id="Ribbons"><path class="cls-11" d="M1116.59,411.4a17.78,17.78,0,0,1-1-5.46l-7.1,6.83a17.26,17.26,0,0,1,1.4,6.66Z"/><path class="cls-12" d="M340.05,939.51,333.65,960"/><path class="cls-13" d="M385.34,717c-11.13-6.06-17.82-20.05-26.9-30s-20.87-19.58-33.85-22.46L317.73,687c9,2,17.57,7.51,25,13.59s13.94,12.89,21.36,18.94,34.52,17.44,43.48,19.27a46.62,46.62,0,0,1,1.58-13.56A87.63,87.63,0,0,1,385.34,717Z"/><path class="cls-14" d="M918.65,417.23a3.27,3.27,0,0,1-.5-4.55,19.35,19.35,0,0,1-12.9.88,10.84,10.84,0,0,1,1,9.62,35.81,35.81,0,0,1,12.15-5"/><path class="cls-15" d="M807.18,1031c14.64,12.53,18.58,33.56,30.42,48.76a15.49,15.49,0,0,0,8.93,5.6c.82.18,9.48-10.22,16.14-11.27-8.45-1.07-15.37-7.51-19.76-14.81s-6.8-15.6-10.17-23.42-8.07-15.54-15.44-19.82Z"/><path class="cls-16" d="M973.37,1020.28a55.78,55.78,0,0,1,27.36,20.2,43.34,43.34,0,0,1,6.3-19,70.4,70.4,0,0,1-32.32-11.21Z"/><path class="cls-14" d="M1362,415.28c-2.23,1-4.62,1.33-6.59,3.33l6.46,1.54c1.89-2.11,4.35-2.26,6.61-3.33,4.52-2.14,8.65-8.36,13-9.54l-8.32-1.63S1366.17,413.48,1362,415.28Z"/><path class="cls-14" d="M96.82,1114.35c-2.26,2.87-5.7,5.31-6,9l13.1-4.16c0-3.69,3.85-6,6-9,4.3-6,1.78-15.6,7.27-20.54l-16.34,5.69S101,1109,96.82,1114.35Z"/><path class="cls-11" d="M1194,164.61c-4.14,2.61-9.68,5.17-13.18,9.41s-6.57,9-10.89,12.36c-5.83,4.6-13.34,6.38-20.58,8l23.5-22.73S1186.68,167.14,1194,164.61Z"/><path class="cls-16" d="M1316.92,671.48c2.89,1.06,6.63,1.74,7.53,4.69l11.85-1.06a30.1,30.1,0,0,1-12.36-13l-16,1S1312.75,670,1316.92,671.48Z"/><path class="cls-11" d="M1076.53,1161.16a29.61,29.61,0,0,1-4.46,8.09l16.35-1.36a28.75,28.75,0,0,1,5.18-10.08Z"/><path class="cls-11" d="M121.57,480.91A29.61,29.61,0,0,1,117.1,489l16.35-1.36a28.75,28.75,0,0,1,5.18-10.08Z"/><path class="cls-11" d="M259.71,225.24c-1.16-5.78-1.71-12.57,1.38-17.81l4.91,2a111.21,111.21,0,0,0,.11,32.85l-5.31-.85S260.87,231,259.71,225.24Z"/><path class="cls-16" d="M890.82,227c-10.16-.1-19.16-6.16-27.67-11.72s-18.08-11.06-28.17-9.86a29.66,29.66,0,0,1,1.64-16.63c14,3,28.75,6.22,39.65,15.56,5.83,5,10.49,11.66,17.53,14.72C894.26,221.74,890.82,227,890.82,227Z"/><path class="cls-16" d="M50.82,146.84c7.58.91,12.41,6.1,17.4,10.1,11.54,9.23,32,14.66,48,12.73L113.49,183c-7.62,1.94-18-.05-26.51-3.36s-15.64-7.8-23.42-11.75-16.81-7.54-26-8.15C38.11,157.22,50.82,146.84,50.82,146.84Z"/><path class="cls-11" d="M749.27,67.68l-7.61,23.79c3.4-.1,6.79,3.14,9,8.57-.25-11.69,2.28-23.49,6.63-30.94Z"/><path class="cls-12" d="M1008.58,515.85c.81-2.74-1.7-5.6-4.52-6.08s-5.64.78-8,2.34-4.59,3.47-7.23,4.55c-6.37,2.6-14.55-1-17-7.42"/><path class="cls-15" d="M255.9,7.13c7.27,3.42,11.17,11.45,17.61,16.25a6.46,6.46,0,0,0,4.21,1.27c.35,0,2.69-5.15,5.25-6.31-3.52.5-7-1.32-9.58-3.78S268.93,9,266.71,6.27s-5-5.36-8.39-6.27Z"/><path class="cls-17" d="M189.05,599.52l2.87-2.4a14.27,14.27,0,0,0,2.55-2.52,4.8,4.8,0,0,0,1-3.36,12.18,12.18,0,0,1-9.18-3.91,6.28,6.28,0,0,1-2.47,4.2c-.54.4-1.14.7-1.63,1.15a2.18,2.18,0,0,0-.83,1.74c.12,1.24,1.58,1.77,2.75,2.18A26.86,26.86,0,0,1,189.05,599.52Z"/><path class="cls-15" d="M1497.67,1169.54c4.61.93,7.47-.29,7.15-3,16.68,11.35,37.18,19,49,18.3,1.15,1.69,2.34,3.39,3.46,5.08,1.5,2.24.58,1.59-2.29.7-8.43-2.61-13.87-1.77-22.55-4.61a134.46,134.46,0,0,1-14.4-5.78c-3.19-1.48-6.4-3.07-9.6-4.74q-2.59-1.35-5.16-2.77C1502.22,1172.12,1498.44,1169.69,1497.67,1169.54Z"/><rect class="cls-18" x="13.18" y="585.75" width="24.03" height="24.03"/><path class="cls-13" d="M715.67,1129.25a23.34,23.34,0,0,0,5,15.15c2,2.52,4.54,4.61,6.41,7.23s3,6.09,1.85,9.08c1.39,1.08,3.59.35,4.55-1.11a6.72,6.72,0,0,0,.57-5.09c-1-4.83-4.45-8.73-7.39-12.7s-5.64-8.68-4.91-13.56Z"/><path class="cls-11" d="M18,997.56c-5.34,2.14-11.86,4.14-18,3.52l.5-3.54a169.1,169.1,0,0,0,32.34-8.13l.79,3.5A156.36,156.36,0,0,0,18,997.56Z"/></g></g></svg>