<svg xmlns="http://www.w3.org/2000/svg" xmlns:xlink="http://www.w3.org/1999/xlink" viewBox="0 0 638.56 153.65"><defs><style>.cls-1{fill:url(#linear-gradient);}.cls-2{fill:url(#linear-gradient-2);}.cls-3{fill:url(#linear-gradient-3);}.cls-4{fill:url(#linear-gradient-4);}.cls-5{fill:url(#linear-gradient-5);}.cls-6{fill:url(#linear-gradient-6);}</style><linearGradient id="linear-gradient" x1="62.59" y1="-13854.93" x2="62.59" y2="8443.07" gradientUnits="userSpaceOnUse"><stop offset="0" stop-color="#3059fb"/><stop offset="1" stop-color="#101cf7"/></linearGradient><linearGradient id="linear-gradient-2" x1="173.65" y1="-8875.27" x2="173.65" y2="5499.43" xlink:href="#linear-gradient"/><linearGradient id="linear-gradient-3" x1="272.39" y1="-8875.27" x2="272.39" y2="5499.43" xlink:href="#linear-gradient"/><linearGradient id="linear-gradient-4" x1="374.07" y1="-8875.27" x2="374.07" y2="5499.43" xlink:href="#linear-gradient"/><linearGradient id="linear-gradient-5" x1="486.38" y1="-8332.36" x2="486.38" y2="5173.32" xlink:href="#linear-gradient"/><linearGradient id="linear-gradient-6" x1="588.29" y1="-8875.27" x2="588.29" y2="5499.43" xlink:href="#linear-gradient"/></defs><title>S01_TypeA</title><g id="Layer_2" data-name="Layer 2"><g id="typeA"><polygon class="cls-1" points="39.09 77.96 79.31 150.72 116.82 150.72 70.05 74.79 125.18 0 90.39 0 40.22 68.01 48.58 0 18.53 0 0 150.72 30.05 150.72 39.09 77.96"/><path class="cls-2" d="M173.09,153.65a52,52,0,0,0,20.11-3.84,50.29,50.29,0,0,0,16.16-10.62,48.39,48.39,0,0,0,10.73-15.93,50.57,50.57,0,0,0,3.84-19.77,48.5,48.5,0,0,0-3.62-19,44.12,44.12,0,0,0-10.05-14.8A46.13,46.13,0,0,0,194.89,60a53.76,53.76,0,0,0-19.77-3.5,52.83,52.83,0,0,0-36.83,14.69,48.58,48.58,0,0,0-11,16,50.12,50.12,0,0,0-4,19.89,48.43,48.43,0,0,0,3.62,19,42.1,42.1,0,0,0,10.17,14.69,46.39,46.39,0,0,0,15.71,9.49A57.88,57.88,0,0,0,173.09,153.65ZM159.3,88.35a19.49,19.49,0,0,1,15.59-7.23q8.81,0,14,5.87t5.2,15.82q0,11.52-6.1,18.87A19.61,19.61,0,0,1,172.18,129q-8.59,0-13.78-6t-5.2-16.15Q153.2,95.58,159.3,88.35Z"/><path class="cls-3" d="M298,144.84q9.71-8.82,9.72-24.41,0-10.39-4.86-16t-17.06-9.26L275.56,92A29,29,0,0,1,270,89.82a4.62,4.62,0,0,1-2.26-2.26,8.9,8.9,0,0,1-.45-3.05,6.35,6.35,0,0,1,2.83-5.42q2.82-2,8-2,10.39,0,22.6,7.46l9.72-19.43a90.39,90.39,0,0,0-16.72-6.67,61.79,61.79,0,0,0-15.82-1.92q-16.95,0-26.66,8.7T241.55,88.8q0,9.71,4.86,15t17.51,9.83q5.65,2,8.93,3.28a25.86,25.86,0,0,1,5,2.37,5.45,5.45,0,0,1,2.15,2.26,8,8,0,0,1,.45,2.93q0,7.69-10.85,7.68a37.9,37.9,0,0,1-6-.45,40,40,0,0,1-6-1.47,64.59,64.59,0,0,1-7.12-2.82q-4-1.81-9.38-4.75l-6.78,21.92a80.1,80.1,0,0,0,36.61,9Q288.32,153.65,298,144.84Z"/><path class="cls-4" d="M337.58,140.78a46.39,46.39,0,0,0,15.71,9.49,57.88,57.88,0,0,0,20.22,3.39,52,52,0,0,0,20.11-3.84,50.29,50.29,0,0,0,16.16-10.62,48.38,48.38,0,0,0,10.73-15.93,50.57,50.57,0,0,0,3.84-19.77,48.5,48.5,0,0,0-3.62-19,44.12,44.12,0,0,0-10.05-14.8A46.13,46.13,0,0,0,395.32,60a53.76,53.76,0,0,0-19.77-3.5,52.83,52.83,0,0,0-36.83,14.69,48.58,48.58,0,0,0-11,16,50.12,50.12,0,0,0-4,19.89,48.42,48.42,0,0,0,3.62,19A42.09,42.09,0,0,0,337.58,140.78Zm22.14-52.42a19.49,19.49,0,0,1,15.59-7.23q8.81,0,14,5.87t5.2,15.82q0,11.52-6.1,18.87A19.6,19.6,0,0,1,372.61,129q-8.59,0-13.78-6t-5.2-16.15Q353.62,95.58,359.73,88.35Z"/><path class="cls-5" d="M486.72,150.72l52-91.29H510L488.75,97.17l-3.61,6.44a53.41,53.41,0,0,0-2.71,5.54q-1.13,2.71-2,5.54t-1.81,6.67l-1.36-.23v-1.81a55.92,55.92,0,0,0-.79-9.83,118.65,118.65,0,0,0-3.28-12.54L462.09,59.43h-28l28,91.29Z"/><path class="cls-6" d="M541.62,126.09a42.08,42.08,0,0,0,10.17,14.69,46.39,46.39,0,0,0,15.7,9.49,57.89,57.89,0,0,0,20.22,3.39,52,52,0,0,0,20.11-3.84A50.29,50.29,0,0,0,624,139.19a48.41,48.41,0,0,0,10.73-15.93,50.55,50.55,0,0,0,3.84-19.77,48.51,48.51,0,0,0-3.62-19,44.08,44.08,0,0,0-10.05-14.8A46.13,46.13,0,0,0,609.53,60a53.76,53.76,0,0,0-19.77-3.5,52.83,52.83,0,0,0-36.83,14.69,48.59,48.59,0,0,0-11,16,50.1,50.1,0,0,0-4,19.89A48.44,48.44,0,0,0,541.62,126.09Zm32.31-37.74a19.49,19.49,0,0,1,15.59-7.23q8.81,0,14,5.87t5.2,15.82q0,11.52-6.1,18.87A19.61,19.61,0,0,1,586.82,129q-8.59,0-13.78-6t-5.2-16.15Q567.83,95.58,573.94,88.35Z"/></g></g></svg>