<svg xmlns="http://www.w3.org/2000/svg" xmlns:xlink="http://www.w3.org/1999/xlink" viewBox="0 0 814.53 141.09"><defs><style>.cls-1{fill:url(#linear-gradient);}.cls-2{fill:url(#linear-gradient-2);}.cls-3{fill:url(#linear-gradient-3);}.cls-4{fill:url(#linear-gradient-4);}.cls-5{fill:url(#linear-gradient-5);}.cls-6{fill:url(#linear-gradient-6);}.cls-7{fill:url(#linear-gradient-7);}.cls-8{fill:url(#linear-gradient-8);}.cls-9{fill:url(#linear-gradient-9);}</style><linearGradient id="linear-gradient" x1="75.22" y1="-12462.49" x2="75.22" y2="7599.12" gradientUnits="userSpaceOnUse"><stop offset="0" stop-color="#3059fb"/><stop offset="1" stop-color="#101cf7"/></linearGradient><linearGradient id="linear-gradient-2" x1="205.26" y1="-12462.49" x2="205.26" y2="7599.12" xlink:href="#linear-gradient"/><linearGradient id="linear-gradient-3" x1="326.5" y1="-12462.49" x2="326.5" y2="7599.12" xlink:href="#linear-gradient"/><linearGradient id="linear-gradient-4" x1="489.87" y1="-12462.49" x2="489.87" y2="7599.12" xlink:href="#linear-gradient"/><linearGradient id="linear-gradient-5" x1="573.1" y1="-12462.49" x2="573.1" y2="7599.12" xlink:href="#linear-gradient"/><linearGradient id="linear-gradient-6" x1="740.74" y1="-12970.07" x2="740.74" y2="7903.85" xlink:href="#linear-gradient"/><linearGradient id="linear-gradient-7" x1="537.99" y1="-2401.77" x2="537.99" y2="1555.79" xlink:href="#linear-gradient"/><linearGradient id="linear-gradient-8" x1="444.97" y1="70.24" x2="566.2" y2="70.24" gradientUnits="userSpaceOnUse"><stop offset="0" stop-color="#feda4b"/><stop offset="1" stop-color="#feb06e"/></linearGradient><linearGradient id="linear-gradient-9" x1="484.67" y1="70.24" x2="627.88" y2="70.24" xlink:href="#linear-gradient-8"/></defs><title>S01_TypeB</title><g id="Layer_2" data-name="Layer 2"><g id="typeB"><path class="cls-1" d="M107.75,71.36q-.81,6.51-1.22,12.2t-.41,11.18Q101.44,85.39,98,78.88T92.3,68.31L53.67,2.85h-37L0,138.45H34.36l7.73-62.62q.81-6.5,1.12-12.3t.3-13.32v-6.1q3.66,9.15,7.62,17.08t9,16.47l36,60.79h37.61L150.44,2.85H116.08Z"/><polygon class="cls-2" points="247.04 32.94 250.7 2.85 176.5 2.85 159.82 138.45 235.66 138.45 239.31 108.36 197.84 108.36 200.69 86 239.31 86 242.97 55.91 204.35 55.91 207.19 32.94 247.04 32.94"/><path class="cls-3" d="M361.67,2.85,345,24q-2.85,3.66-5.79,7.93t-7.83,11.79q-1.42-3.66-2.85-6.51t-2.74-5.69q-1.32-2.84-2.95-5.9T319,18.71L310,2.85H270.18L309,67.09l-59.16,71.36h42.69L313.69,112q4.06-4.88,7.32-9.66t6.1-9.86q2.84,6.92,6.1,13.52t6.51,12.1l12.2,20.33h39.64L349.47,68.92,403.14,2.85Z"/><polygon class="cls-4" points="567.49 2.85 415.91 2.85 412.25 32.94 441.33 32.94 428.32 138.45 462.67 138.45 475.69 32.94 564.43 32.94 567.49 2.85"/><polygon class="cls-5" points="646.2 2.85 587.55 2.85 584.34 32.94 608.19 32.94 598.88 108.36 486.71 108.36 483.05 138.45 595.17 138.45 629.53 138.45 659.49 138.45 663.15 108.36 633.23 108.36 646.2 2.85"/><path class="cls-6" d="M809.45,39.85A60.41,60.41,0,0,0,795,18.6,65.53,65.53,0,0,0,772.55,4.88a82.51,82.51,0,0,0-29-4.88,87,87,0,0,0-30.9,5.29,71.12,71.12,0,0,0-24.19,14.94,68.34,68.34,0,0,0-15.86,23,73.39,73.39,0,0,0-5.69,29.17,70.86,70.86,0,0,0,5.39,28,62.55,62.55,0,0,0,15.15,21.75,68.52,68.52,0,0,0,23.38,14,87,87,0,0,0,30.09,5q19.31,0,34.26-7a63.41,63.41,0,0,0,24.7-20.43,75.63,75.63,0,0,0,10.77-21.85,81.47,81.47,0,0,0,3.86-24.5A71.77,71.77,0,0,0,809.45,39.85Zm-33,46a35.47,35.47,0,0,1-8.13,12,37.52,37.52,0,0,1-12.4,7.83,45.2,45.2,0,0,1-31.31.1,35.2,35.2,0,0,1-12-7.62,33.61,33.61,0,0,1-7.73-11.79,41,41,0,0,1-2.74-15.25,38.8,38.8,0,0,1,3-15.45,38,38,0,0,1,8.34-12.3,36.83,36.83,0,0,1,12.6-8,44,44,0,0,1,16.06-2.85,41,41,0,0,1,15.25,2.74,32.87,32.87,0,0,1,19.31,19.82,44.74,44.74,0,0,1,2.64,15.66A38.72,38.72,0,0,1,776.41,85.9Z"/><path class="cls-7" d="M538,57.27a13.39,13.39,0,0,0-13.31,12.17h-9.26v2.41h9.26a13.37,13.37,0,0,0,26.63,0h9.26V69.44h-9.26A13.39,13.39,0,0,0,538,57.27Zm0,24.34a11,11,0,0,1-10.9-9.76h21.79A11,11,0,0,1,538,81.62ZM527.1,69.44a11,11,0,0,1,21.79,0Z"/><polygon class="cls-8" points="464.31 125.17 444.98 125.17 458.74 15.31 566.2 15.31 565.86 18.84 461.86 18.84 448.98 121.64 464.75 121.64 464.31 125.17"/><polygon class="cls-9" points="615.88 125.17 484.67 125.17 485.1 121.63 612.71 121.64 623.94 18.84 585.85 18.84 586.22 15.31 627.88 15.31 615.88 125.17"/></g></g></svg>